<svg xmlns="http://www.w3.org/2000/svg" viewBox="0 0 602 321"><defs><filter id="Rectangle_201" width="102" height="174" x="394" y="62.616" filterUnits="userSpaceOnUse"><feOffset dy="3"/><feGaussianBlur result="blur" stdDeviation="3"/><feFlood flood-opacity=".161"/><feComposite in2="blur" operator="in"/><feComposite in="SourceGraphic"/></filter><filter id="Rectangle_164" width="248.473" height="250.03" x="145.571" y="42.143" filterUnits="userSpaceOnUse"><feOffset dy="3"/><feGaussianBlur result="blur-2" stdDeviation="3"/><feFlood flood-opacity=".161"/><feComposite in2="blur-2" operator="in"/><feComposite in="SourceGraphic"/></filter><filter id="Rectangle_193" width="99.489" height="101.008" x="102.231" y="123.401" filterUnits="userSpaceOnUse"><feOffset dy="3"/><feGaussianBlur result="blur-3" stdDeviation="3"/><feFlood flood-opacity=".161"/><feComposite in2="blur-3" operator="in"/><feComposite in="SourceGraphic"/></filter><filter id="Rectangle_160" width="113.485" height="84.327" x="302.485" y="219.615" filterUnits="userSpaceOnUse"><feOffset dy="3"/><feGaussianBlur result="blur-4" stdDeviation="3"/><feFlood flood-opacity=".161"/><feComposite in2="blur-4" operator="in"/><feComposite in="SourceGraphic"/></filter></defs><g id="Group_106" data-name="Group 106" transform="translate(-669 -85)"><ellipse id="Ellipse_12" cx="153" cy="110" fill="#fffbed" data-name="Ellipse 12" rx="153" ry="110" transform="translate(669 163)"/><ellipse id="Ellipse_13" cx="224.5" cy="160.5" fill="#fffbed" data-name="Ellipse 13" rx="224.5" ry="160.5" transform="translate(822 85)"/><g id="Group_79" data-name="Group 79" transform="translate(-15 -72.384)"><g filter="url(#Rectangle_201)" transform="translate(684 157.38)"><rect id="Rectangle_201-2" width="84" height="156" fill="#fff" data-name="Rectangle 201" rx="4" transform="translate(403 68.62)"/></g><path id="Rectangle_202" fill="#414862" d="M3 0h78a3 3 0 0 1 3 3v54.03H0V3a3 3 0 0 1 3-3Z" data-name="Rectangle 202" transform="translate(1087 226)"/><path id="Path_32" fill="#36bbde" d="M3 0h78a3 3 0 0 1 3 3v6.917H0V3a3 3 0 0 1 3-3Z" data-name="Path 32" transform="translate(1087 226)"/><rect id="Rectangle_204" width="19" height="6" fill="#fde1ac" data-name="Rectangle 204" rx="2" transform="translate(1149.426 228)"/><rect id="Rectangle_205" width="6" height="6" fill="#fde1ac" data-name="Rectangle 205" rx="3" transform="translate(1089.426 228)"/><rect id="Rectangle_207" width="64.03" height="5.786" fill="#f0f0f0" data-name="Rectangle 207" rx="1" transform="translate(1097 262.771)"/><g id="Rectangle_208" fill="none" stroke="#ebebeb" stroke-width="1" data-name="Rectangle 208" transform="translate(1092 289.191)"><rect width="73.03" height="57.365" stroke="none" rx="2"/><rect width="72.03" height="56.365" x=".5" y=".5" rx="1.5"/></g><g id="Rectangle_220" fill="none" stroke="#ebebeb" stroke-width="1" data-name="Rectangle 220"><path stroke="none" d="M2 0h69.03a2 2 0 0 1 2 2v28.809H0V2a2 2 0 0 1 2-2Z" transform="translate(1092 351.191)"/><path d="M1094 351.691h69.03a1.5 1.5 0 0 1 1.5 1.5V381.5h-72.03v-28.309a1.5 1.5 0 0 1 1.5-1.5Z"/></g><circle id="Ellipse_15" cx="4.672" cy="4.672" r="4.672" fill="#e3e3e3" data-name="Ellipse 15" transform="translate(1098.229 295.42)"/><circle id="Ellipse_16" cx="4.672" cy="4.672" r="4.672" fill="#e3e3e3" data-name="Ellipse 16" transform="translate(1098.229 357.42)"/><rect id="Rectangle_209" width="20.244" height="4.672" fill="#e3e3e3" data-name="Rectangle 209" rx="1" transform="translate(1098.229 310.888)"/><rect id="Rectangle_221" width="20.244" height="4.672" fill="#e3e3e3" data-name="Rectangle 221" rx="1" transform="translate(1098.229 372.888)"/><rect id="Rectangle_210" width="59.015" height="3.115" fill="#e3e3e3" data-name="Rectangle 210" rx="1" transform="translate(1098.229 320.192)"/><rect id="Rectangle_211" width="59.015" height="3.115" fill="#e3e3e3" data-name="Rectangle 211" rx="1" transform="translate(1098.229 326.392)"/><rect id="Rectangle_212" width="26" height="8" fill="#fde1ac" data-name="Rectangle 212" rx="2" transform="translate(1097.916 333.747)"/><path id="Rectangle_218" fill="#fff" d="M0 0h71v3H0z" data-name="Rectangle 218" transform="translate(1093 379)"/><rect id="Rectangle_223" width="35" height="7" fill="#f0f0f0" data-name="Rectangle 223" rx="1" transform="translate(1111 251.384)"/></g><g id="Group_77" data-name="Group 77" transform="translate(73.299 28.173)"><g id="Group_78" data-name="Group 78" transform="translate(-32 40.288)"><g filter="url(#Rectangle_164)" transform="translate(627.7 16.54)"><rect id="Rectangle_164-2" width="230.473" height="232.03" fill="#fff" data-name="Rectangle 164" rx="3" transform="translate(154.57 48.14)"/></g><path id="Rectangle_189" fill="#414862" d="M0 0h230.473v63.198H0z" data-name="Rectangle 189" transform="translate(782.501 77.539)"/><path id="Rectangle_198" fill="#36bbde" d="M3 0h224.473a3 3 0 0 1 3 3v10.917H0V3a3 3 0 0 1 3-3Z" data-name="Rectangle 198" transform="translate(782.501 63.597)"/><g id="Group_80" fill="#f0f0f0" data-name="Group 80" transform="translate(0 1.3)"><rect id="Rectangle_165" width="62.29" height="10.901" data-name="Rectangle 165" rx="2" transform="translate(866.127 95.239)"/><rect id="Rectangle_166" width="101.221" height="7.786" data-name="Rectangle 166" rx="2" transform="translate(847.127 112.369)"/></g><g id="Rectangle_168" fill="none" stroke="#ebebeb" stroke-width="1" data-name="Rectangle 168" transform="translate(930.211 162.789)"><rect width="56.061" height="57.618" stroke="none" rx="2"/><rect width="55.061" height="56.618" x=".5" y=".5" rx="1.5"/></g><g id="Rectangle_191" fill="none" stroke="#ebebeb" stroke-width="1" data-name="Rectangle 191" transform="translate(868.143 162.789)"><rect width="56.061" height="57.618" stroke="none" rx="2"/><rect width="55.061" height="56.618" x=".5" y=".5" rx="1.5"/></g><g id="Rectangle_192" fill="#f7f7f7" stroke="#d3d3d3" stroke-dasharray="4" stroke-width="1" data-name="Rectangle 192" transform="translate(806.127 162.789)"><rect width="56.061" height="57.618" stroke="none" rx="2"/><rect width="55.061" height="56.618" x=".5" y=".5" fill="none" rx="1.5"/></g><rect id="Rectangle_169" width="65.405" height="7.786" fill="#e3e3e3" data-name="Rectangle 169" rx="1" transform="translate(805.631 243.766)"/><rect id="Rectangle_183" width="85.649" height="4.672" fill="#e3e3e3" data-name="Rectangle 183" rx="1" transform="translate(805.631 257.338)"/><rect id="Rectangle_184" width="85.649" height="4.672" fill="#e3e3e3" data-name="Rectangle 184" rx="1" transform="translate(805.631 266.682)"/><rect id="Rectangle_200" width="85.649" height="4.672" fill="#e3e3e3" data-name="Rectangle 200" rx="1" transform="translate(805.631 276.025)"/><circle id="Ellipse_10" cx="4.672" cy="4.672" r="4.672" fill="#e3e3e3" data-name="Ellipse 10" transform="translate(874.15 169.018)"/><circle id="Ellipse_11" cx="4.672" cy="4.672" r="4.672" fill="#e3e3e3" data-name="Ellipse 11" transform="translate(936.44 169.018)"/><rect id="Rectangle_171" width="20.244" height="4.672" fill="#e3e3e3" data-name="Rectangle 171" rx="1" transform="translate(874.15 184.59)"/><rect id="Rectangle_173" width="20.244" height="4.672" fill="#e3e3e3" data-name="Rectangle 173" rx="1" transform="translate(936.44 184.59)"/><rect id="Rectangle_174" width="42.046" height="3.115" fill="#e3e3e3" data-name="Rectangle 174" rx="1" transform="translate(874.15 193.934)"/><rect id="Rectangle_176" width="42.046" height="3.115" fill="#e3e3e3" data-name="Rectangle 176" rx="1" transform="translate(936.44 193.934)"/><rect id="Rectangle_177" width="42.046" height="3.115" fill="#e3e3e3" data-name="Rectangle 177" rx="1" transform="translate(874.15 200.163)"/><rect id="Rectangle_179" width="42.046" height="3.115" fill="#e3e3e3" data-name="Rectangle 179" rx="1" transform="translate(936.44 200.163)"/><rect id="Rectangle_180" width="34.26" height="3.115" fill="#e3e3e3" data-name="Rectangle 180" rx="1" transform="translate(874.15 206.392)"/><rect id="Rectangle_187" width="26" height="8" fill="#fde1ac" data-name="Rectangle 187" rx="2" transform="translate(936.127 207.597)"/><rect id="Rectangle_190" width="26" height="8" fill="#fde1ac" data-name="Rectangle 190" rx="2" transform="translate(981.127 66.597)"/><rect id="Rectangle_199" width="8" height="8" fill="#fde1ac" data-name="Rectangle 199" rx="4" transform="translate(788.127 66.597)"/><g filter="url(#Rectangle_193)" transform="translate(627.7 16.54)"><g id="Rectangle_193-2" fill="#fff" stroke="#ebebeb" stroke-width="1" data-name="Rectangle 193" transform="rotate(-11 796.09381181 -506.28385861)"><rect width="69.191" height="71.112" stroke="none" rx="2"/><rect width="68.191" height="70.112" x=".5" y=".5" fill="none" rx="1.5"/></g></g><circle id="Ellipse_14" cx="5.766" cy="5.766" r="5.766" fill="#e3e3e3" data-name="Ellipse 14" transform="rotate(-11 1231.92103819 -3801.24710225)"/><rect id="Rectangle_194" width="24.986" height="5.766" fill="#e3e3e3" data-name="Rectangle 194" rx="1" transform="rotate(-11 1331.71998884 -3810.8557278)"/><rect id="Rectangle_195" width="51.893" height="3.844" fill="#e3e3e3" data-name="Rectangle 195" rx="1" transform="rotate(-11 1391.60133632 -3816.61966459)"/><rect id="Rectangle_196" width="51.893" height="3.844" fill="#e3e3e3" data-name="Rectangle 196" rx="1" transform="rotate(-11 1431.5241322 -3820.46385334)"/><rect id="Rectangle_197" width="32.089" height="9.874" fill="#fde1ac" data-name="Rectangle 197" rx="2" transform="rotate(-11 1479.35983494 -3823.04823574)"/><g id="Group_76" data-name="Group 76" transform="rotate(8 -1152.84077144 6854.71086409)"><g id="Rectangle_186" fill="#f7f7f7" stroke="#d3d3d3" stroke-dasharray="4" stroke-width="1" data-name="Rectangle 186" transform="rotate(-8 86.45411964 281.12735349)"><rect width="78.366" height="48.119" stroke="none" rx="5"/><rect width="77.366" height="47.119" x=".5" y=".5" fill="none" rx="4.5"/></g><g filter="url(#Rectangle_160)" transform="matrix(.99 -.14 .14 .99 -341.32 -164.72)"><rect id="Rectangle_160-2" width="88.763" height="54.504" fill="#b5d9ef" data-name="Rectangle 160" rx="5" transform="rotate(8 -1453.72316042 2394.26679126)"/></g><g id="Group_74" data-name="Group 74" transform="translate(21.621 21.48)"><path id="Polygon_1" fill="#9bc5de" d="m15.573 0 15.572 31.145H0Z" data-name="Polygon 1" transform="translate(0 8.39)"/><path id="Path_24" fill="#f7f5f5" d="m5.915 0 5.915 11.83-3.206-2.2-2.875 1.544-2.54-1.539L0 11.83Z" data-name="Path 24" transform="translate(10.06 7.887)"/><path id="Polygon_2" fill="#9bc5de" d="m19.466 0 19.465 38.931H0Z" data-name="Polygon 2" transform="translate(18.687 .604)"/><path id="Path_25" fill="#f7f5f5" d="m5.915 0 5.915 11.83-3.206-2.2-2.875 1.544-2.54-1.539L0 11.83Z" data-name="Path 25" transform="translate(31.749)"/></g></g></g></g></g></svg>