<svg xmlns="http://www.w3.org/2000/svg" viewBox="0 0 124.506 38"><defs><linearGradient id="linear-gradient" x1=".013" x2="1" y1=".5" y2=".55" gradientUnits="objectBoundingBox"><stop offset="0" stop-color="#057bba" stop-opacity=".988"/><stop offset="1" stop-color="#29c1dd"/></linearGradient></defs><g id="Group_40" data-name="Group 40" transform="translate(-86.494 -18)"><text id="Builder" fill="#383839" font-family="Quicksand" font-size="30" font-weight="700" letter-spacing="-.01em" transform="translate(111 48)"><tspan x="0" y="0">Builder</tspan></text><g id="Group_39" fill="url(#linear-gradient)" data-name="Group 39" transform="translate(-175.506 -58)"><path id="Path_12" d="M3.1 0h10.336a3.01 3.01 0 0 1 3.1 2.911 3.01 3.01 0 0 1-3.1 2.911H3.1A3.01 3.01 0 0 1 0 2.911 3.01 3.01 0 0 1 3.1 0Z" data-name="Path 12" transform="translate(262 83)"/><path id="Path_9" d="M3.1 0h10.336a3.01 3.01 0 0 1 3.1 2.911 3.01 3.01 0 0 1-3.1 2.911H3.1A3.01 3.01 0 0 1 0 2.911 3.01 3.01 0 0 1 3.1 0Z" data-name="Path 9" transform="rotate(180 139.268 53.5055)"/><path id="Path_11" d="M2.911 0h9.7a2.911 2.911 0 0 1 0 5.822h-9.7a2.911 2.911 0 0 1 0-5.822Z" data-name="Path 11" transform="rotate(-90 185.6195 -87.0945)"/><path id="Path_10" d="M2.911 0h9.7a2.911 2.911 0 0 1 0 5.822h-9.7a2.911 2.911 0 0 1 0-5.822Z" data-name="Path 10" transform="rotate(90 88.1685 179.6535)"/></g></g></svg>