<svg xmlns="http://www.w3.org/2000/svg" viewBox="0 0 123.194 38"><defs><linearGradient id="linear-gradient" x2="1" y1=".07" y2=".936" gradientUnits="objectBoundingBox"><stop offset="0" stop-color="#057bba" stop-opacity=".988"/><stop offset=".517" stop-color="#29c1dd" stop-opacity=".996"/><stop offset="1" stop-color="#057bba"/></linearGradient></defs><g id="Group_105" data-name="Group 105" transform="translate(-323.807 -279)"><path id="Path_41" fill="url(#linear-gradient)" d="M-3802.582 6559.244v-6.593h-6.593a2.826 2.826 0 0 1-2.826-2.826 2.825 2.825 0 0 1 2.826-2.825h9.418a2.824 2.824 0 0 1 2.825 2.825v9.418a2.825 2.825 0 0 1-2.825 2.825 2.825 2.825 0 0 1-2.825-2.824Z" data-name="Path 41" transform="translate(4135.807 -6260.775)"/><path id="Path_42" fill="url(#linear-gradient)" d="M9.418 12.243V5.65H2.825a2.825 2.825 0 1 1 0-5.65h9.418a2.825 2.825 0 0 1 2.825 2.825v9.418a2.825 2.825 0 0 1-5.65 0Z" data-name="Path 42" transform="rotate(180 169.4375 154.548)"/><g id="Group_104" data-name="Group 104" transform="translate(236 261)"><text id="Builder" fill="#fafafa" font-family="Quicksand" font-size="30" font-weight="700" letter-spacing="-.01em" transform="translate(111 48)"><tspan x="0" y="0">Builder</tspan></text></g></g></svg>